<mxfile host="app.diagrams.net" modified="2022-10-31T14:28:29.486Z" agent="5.0 (Windows NT 10.0; Win64; x64) AppleWebKit/537.36 (KHTML, like Gecko) Chrome/106.0.0.0 Safari/537.36" etag="m135VN0ijvdyVNF_iOSy" version="20.5.1" type="github">
  <diagram id="jhSiki7e048jyaw0wfd_" name="Halaman-1">
    <mxGraphModel dx="1984" dy="600" grid="1" gridSize="13" guides="1" tooltips="1" connect="1" arrows="1" fold="1" page="1" pageScale="1" pageWidth="827" pageHeight="1169" math="0" shadow="0">
      <root>
        <mxCell id="0" />
        <mxCell id="1" parent="0" />
        <mxCell id="SpKTWfEn3x-crov-0-pk-5" value="Provinsi" style="rounded=0;whiteSpace=wrap;html=1;strokeColor=#000000;strokeWidth=5;" vertex="1" parent="1">
          <mxGeometry x="190" y="100" width="130" height="70" as="geometry" />
        </mxCell>
        <mxCell id="SpKTWfEn3x-crov-0-pk-9" value="Id_Provinsi" style="ellipse;whiteSpace=wrap;html=1;strokeColor=#000000;strokeWidth=5;" vertex="1" parent="1">
          <mxGeometry x="-3" y="29" width="120" height="80" as="geometry" />
        </mxCell>
        <mxCell id="SpKTWfEn3x-crov-0-pk-12" value="Provinsi" style="ellipse;whiteSpace=wrap;html=1;strokeColor=#000000;strokeWidth=5;" vertex="1" parent="1">
          <mxGeometry x="7" y="127" width="120" height="80" as="geometry" />
        </mxCell>
        <mxCell id="SpKTWfEn3x-crov-0-pk-14" value="Kota" style="ellipse;whiteSpace=wrap;html=1;strokeColor=#000000;strokeWidth=5;" vertex="1" parent="1">
          <mxGeometry x="364" y="31" width="120" height="80" as="geometry" />
        </mxCell>
        <mxCell id="SpKTWfEn3x-crov-0-pk-16" value="Kecamatan" style="ellipse;whiteSpace=wrap;html=1;strokeColor=#000000;strokeWidth=5;" vertex="1" parent="1">
          <mxGeometry x="372" y="130" width="120" height="80" as="geometry" />
        </mxCell>
        <mxCell id="SpKTWfEn3x-crov-0-pk-22" value="" style="edgeStyle=orthogonalEdgeStyle;rounded=0;orthogonalLoop=1;jettySize=auto;html=1;" edge="1" parent="1" source="SpKTWfEn3x-crov-0-pk-17" target="SpKTWfEn3x-crov-0-pk-19">
          <mxGeometry relative="1" as="geometry" />
        </mxCell>
        <mxCell id="SpKTWfEn3x-crov-0-pk-17" value="" style="line;strokeWidth=2;direction=south;html=1;strokeColor=#000000;" vertex="1" parent="1">
          <mxGeometry x="250" y="170" width="10" height="80" as="geometry" />
        </mxCell>
        <mxCell id="SpKTWfEn3x-crov-0-pk-18" value="Tempat Lokasi" style="html=1;whiteSpace=wrap;aspect=fixed;shape=isoRectangle;strokeColor=#000000;strokeWidth=5;" vertex="1" parent="1">
          <mxGeometry x="180" y="245" width="150" height="90" as="geometry" />
        </mxCell>
        <mxCell id="SpKTWfEn3x-crov-0-pk-19" value="" style="line;strokeWidth=2;direction=south;html=1;strokeColor=#000000;" vertex="1" parent="1">
          <mxGeometry x="250" y="335" width="10" height="68" as="geometry" />
        </mxCell>
        <mxCell id="SpKTWfEn3x-crov-0-pk-21" value="Tempat Sekolah" style="rounded=0;whiteSpace=wrap;html=1;strokeColor=#000000;strokeWidth=5;" vertex="1" parent="1">
          <mxGeometry x="214" y="405" width="130" height="60" as="geometry" />
        </mxCell>
        <mxCell id="SpKTWfEn3x-crov-0-pk-24" value="" style="line;strokeWidth=2;direction=south;html=1;strokeColor=#000000;rotation=-45;" vertex="1" parent="1">
          <mxGeometry x="176.75" y="342.75" width="10" height="90" as="geometry" />
        </mxCell>
        <mxCell id="SpKTWfEn3x-crov-0-pk-25" value="Id_Sekolah" style="ellipse;whiteSpace=wrap;html=1;strokeColor=#000000;strokeWidth=5;" vertex="1" parent="1">
          <mxGeometry x="50" y="315" width="110" height="60" as="geometry" />
        </mxCell>
        <mxCell id="SpKTWfEn3x-crov-0-pk-26" value="" style="endArrow=none;html=1;rounded=0;strokeWidth=3;" edge="1" parent="1">
          <mxGeometry width="50" height="50" relative="1" as="geometry">
            <mxPoint x="130" y="403" as="sourcePoint" />
            <mxPoint x="214" y="423" as="targetPoint" />
          </mxGeometry>
        </mxCell>
        <mxCell id="SpKTWfEn3x-crov-0-pk-28" value="Nama_Sekolah" style="ellipse;whiteSpace=wrap;html=1;strokeColor=#000000;strokeWidth=5;" vertex="1" parent="1">
          <mxGeometry x="39" y="380" width="94" height="52" as="geometry" />
        </mxCell>
        <mxCell id="SpKTWfEn3x-crov-0-pk-32" value="" style="endArrow=none;html=1;rounded=0;strokeWidth=3;" edge="1" parent="1">
          <mxGeometry width="50" height="50" relative="1" as="geometry">
            <mxPoint x="143" y="455" as="sourcePoint" />
            <mxPoint x="213" y="422" as="targetPoint" />
          </mxGeometry>
        </mxCell>
        <mxCell id="SpKTWfEn3x-crov-0-pk-34" value="Alamat" style="ellipse;whiteSpace=wrap;html=1;strokeColor=#000000;strokeWidth=5;" vertex="1" parent="1">
          <mxGeometry x="26" y="442" width="120" height="52" as="geometry" />
        </mxCell>
        <mxCell id="SpKTWfEn3x-crov-0-pk-35" value="" style="endArrow=none;html=1;rounded=0;strokeWidth=3;" edge="1" parent="1">
          <mxGeometry width="50" height="50" relative="1" as="geometry">
            <mxPoint x="130" y="507" as="sourcePoint" />
            <mxPoint x="214" y="429" as="targetPoint" />
          </mxGeometry>
        </mxCell>
        <mxCell id="SpKTWfEn3x-crov-0-pk-37" value="Kode Pos" style="ellipse;whiteSpace=wrap;html=1;strokeColor=#000000;strokeWidth=5;" vertex="1" parent="1">
          <mxGeometry x="26" y="494" width="120" height="52" as="geometry" />
        </mxCell>
        <mxCell id="SpKTWfEn3x-crov-0-pk-38" value="" style="endArrow=none;html=1;rounded=0;strokeWidth=3;entryX=1;entryY=0.5;entryDx=0;entryDy=0;entryPerimeter=0;" edge="1" parent="1" target="SpKTWfEn3x-crov-0-pk-24">
          <mxGeometry width="50" height="50" relative="1" as="geometry">
            <mxPoint x="160" y="546" as="sourcePoint" />
            <mxPoint x="210" y="429" as="targetPoint" />
          </mxGeometry>
        </mxCell>
        <mxCell id="SpKTWfEn3x-crov-0-pk-40" value="Jenis Sekolah" style="ellipse;whiteSpace=wrap;html=1;strokeColor=#000000;strokeWidth=5;" vertex="1" parent="1">
          <mxGeometry x="91" y="545" width="107" height="53" as="geometry" />
        </mxCell>
        <mxCell id="SpKTWfEn3x-crov-0-pk-41" value="" style="strokeWidth=2;html=1;shape=mxgraph.flowchart.annotation_2;align=left;labelPosition=right;pointerEvents=1;strokeColor=#000000;rotation=90;" vertex="1" parent="1">
          <mxGeometry x="119.5" y="572" width="50" height="100" as="geometry" />
        </mxCell>
        <mxCell id="SpKTWfEn3x-crov-0-pk-42" value="SD" style="strokeWidth=2;html=1;shape=mxgraph.flowchart.start_1;whiteSpace=wrap;strokeColor=#000000;" vertex="1" parent="1">
          <mxGeometry x="60" y="637" width="65" height="39" as="geometry" />
        </mxCell>
        <mxCell id="SpKTWfEn3x-crov-0-pk-43" value="MI" style="strokeWidth=2;html=1;shape=mxgraph.flowchart.start_1;whiteSpace=wrap;strokeColor=#000000;" vertex="1" parent="1">
          <mxGeometry x="156" y="639" width="67.5" height="37" as="geometry" />
        </mxCell>
        <mxCell id="SpKTWfEn3x-crov-0-pk-45" value="" style="endArrow=none;html=1;rounded=0;strokeWidth=3;" edge="1" parent="1" target="SpKTWfEn3x-crov-0-pk-46">
          <mxGeometry width="50" height="50" relative="1" as="geometry">
            <mxPoint x="344" y="431" as="sourcePoint" />
            <mxPoint x="403" y="431" as="targetPoint" />
          </mxGeometry>
        </mxCell>
        <mxCell id="SpKTWfEn3x-crov-0-pk-46" value="&lt;font size=&quot;3&quot;&gt;Memiliki&lt;/font&gt;" style="html=1;whiteSpace=wrap;aspect=fixed;shape=isoRectangle;strokeColor=#000000;strokeWidth=5;" vertex="1" parent="1">
          <mxGeometry x="399" y="387" width="150" height="90" as="geometry" />
        </mxCell>
        <mxCell id="SpKTWfEn3x-crov-0-pk-47" value="" style="endArrow=none;html=1;rounded=0;strokeWidth=3;" edge="1" parent="1">
          <mxGeometry width="50" height="50" relative="1" as="geometry">
            <mxPoint x="550" y="433" as="sourcePoint" />
            <mxPoint x="605" y="433.42307692307713" as="targetPoint" />
          </mxGeometry>
        </mxCell>
        <mxCell id="SpKTWfEn3x-crov-0-pk-50" value="&lt;font size=&quot;3&quot;&gt;Status&lt;/font&gt;" style="rounded=0;whiteSpace=wrap;html=1;strokeColor=#000000;strokeWidth=5;" vertex="1" parent="1">
          <mxGeometry x="598" y="416" width="104" height="52" as="geometry" />
        </mxCell>
        <mxCell id="SpKTWfEn3x-crov-0-pk-51" value="" style="endArrow=none;html=1;rounded=0;strokeWidth=3;fontFamily=Times New Roman;fontSize=18;fontColor=#000000;" edge="1" parent="1" target="SpKTWfEn3x-crov-0-pk-52">
          <mxGeometry width="50" height="50" relative="1" as="geometry">
            <mxPoint x="702" y="437" as="sourcePoint" />
            <mxPoint x="752" y="387" as="targetPoint" />
          </mxGeometry>
        </mxCell>
        <mxCell id="SpKTWfEn3x-crov-0-pk-52" value="Id_Status" style="ellipse;whiteSpace=wrap;html=1;strokeColor=#000000;strokeWidth=5;fontFamily=Times New Roman;fontSize=18;fontColor=#000000;" vertex="1" parent="1">
          <mxGeometry x="742" y="340" width="104" height="56" as="geometry" />
        </mxCell>
        <mxCell id="SpKTWfEn3x-crov-0-pk-53" value="" style="endArrow=none;html=1;rounded=0;strokeWidth=3;fontFamily=Times New Roman;fontSize=18;fontColor=#000000;exitX=1;exitY=0.5;exitDx=0;exitDy=0;" edge="1" parent="1" target="SpKTWfEn3x-crov-0-pk-54">
          <mxGeometry width="50" height="50" relative="1" as="geometry">
            <mxPoint x="698" y="439" as="sourcePoint" />
            <mxPoint x="750" y="426" as="targetPoint" />
          </mxGeometry>
        </mxCell>
        <mxCell id="SpKTWfEn3x-crov-0-pk-54" value="Status" style="ellipse;whiteSpace=wrap;html=1;strokeColor=#000000;strokeWidth=5;fontFamily=Times New Roman;fontSize=18;fontColor=#000000;" vertex="1" parent="1">
          <mxGeometry x="745" y="419" width="109" height="52" as="geometry" />
        </mxCell>
        <mxCell id="SpKTWfEn3x-crov-0-pk-55" value="" style="endArrow=none;html=1;rounded=0;strokeWidth=3;fontFamily=Times New Roman;fontSize=18;fontColor=#000000;entryX=0;entryY=0;entryDx=0;entryDy=0;" edge="1" parent="1" target="SpKTWfEn3x-crov-0-pk-56">
          <mxGeometry width="50" height="50" relative="1" as="geometry">
            <mxPoint x="702" y="442" as="sourcePoint" />
            <mxPoint x="728" y="494" as="targetPoint" />
          </mxGeometry>
        </mxCell>
        <mxCell id="SpKTWfEn3x-crov-0-pk-56" value="MBS" style="ellipse;whiteSpace=wrap;html=1;strokeColor=#000000;strokeWidth=5;fontFamily=Times New Roman;fontSize=18;fontColor=#000000;" vertex="1" parent="1">
          <mxGeometry x="743" y="499" width="104" height="56" as="geometry" />
        </mxCell>
        <mxCell id="SpKTWfEn3x-crov-0-pk-61" value="" style="endArrow=none;html=1;rounded=0;strokeWidth=3;fontFamily=Times New Roman;fontSize=18;fontColor=#000000;" edge="1" parent="1">
          <mxGeometry width="50" height="50" relative="1" as="geometry">
            <mxPoint x="855" y="440" as="sourcePoint" />
            <mxPoint x="905" y="390" as="targetPoint" />
          </mxGeometry>
        </mxCell>
        <mxCell id="SpKTWfEn3x-crov-0-pk-62" value="" style="endArrow=none;html=1;rounded=0;strokeWidth=3;fontFamily=Times New Roman;fontSize=18;fontColor=#000000;" edge="1" parent="1">
          <mxGeometry width="50" height="50" relative="1" as="geometry">
            <mxPoint x="854" y="443" as="sourcePoint" />
            <mxPoint x="918" y="465" as="targetPoint" />
          </mxGeometry>
        </mxCell>
        <mxCell id="SpKTWfEn3x-crov-0-pk-63" value="" style="endArrow=none;html=1;rounded=0;strokeWidth=3;fontFamily=Times New Roman;fontSize=18;fontColor=#000000;entryX=0;entryY=0.5;entryDx=0;entryDy=0;" edge="1" parent="1" target="SpKTWfEn3x-crov-0-pk-67">
          <mxGeometry width="50" height="50" relative="1" as="geometry">
            <mxPoint x="848" y="524" as="sourcePoint" />
            <mxPoint x="923" y="494" as="targetPoint" />
          </mxGeometry>
        </mxCell>
        <mxCell id="SpKTWfEn3x-crov-0-pk-64" value="" style="endArrow=none;html=1;rounded=0;strokeWidth=3;fontFamily=Times New Roman;fontSize=18;fontColor=#000000;" edge="1" parent="1">
          <mxGeometry width="50" height="50" relative="1" as="geometry">
            <mxPoint x="847" y="527" as="sourcePoint" />
            <mxPoint x="923" y="572" as="targetPoint" />
          </mxGeometry>
        </mxCell>
        <mxCell id="SpKTWfEn3x-crov-0-pk-65" value="Negri" style="ellipse;whiteSpace=wrap;html=1;strokeColor=#000000;strokeWidth=5;fontFamily=Times New Roman;fontSize=18;fontColor=#000000;" vertex="1" parent="1">
          <mxGeometry x="897" y="349" width="104" height="56" as="geometry" />
        </mxCell>
        <mxCell id="SpKTWfEn3x-crov-0-pk-66" value="Swasta" style="ellipse;whiteSpace=wrap;html=1;strokeColor=#000000;strokeWidth=5;fontFamily=Times New Roman;fontSize=18;fontColor=#000000;" vertex="1" parent="1">
          <mxGeometry x="910" y="421" width="104" height="56" as="geometry" />
        </mxCell>
        <mxCell id="SpKTWfEn3x-crov-0-pk-67" value="Pagi" style="ellipse;whiteSpace=wrap;html=1;strokeColor=#000000;strokeWidth=5;fontFamily=Times New Roman;fontSize=18;fontColor=#000000;" vertex="1" parent="1">
          <mxGeometry x="910" y="484" width="104" height="56" as="geometry" />
        </mxCell>
        <mxCell id="SpKTWfEn3x-crov-0-pk-68" value="Siang" style="ellipse;whiteSpace=wrap;html=1;strokeColor=#000000;strokeWidth=5;fontFamily=Times New Roman;fontSize=18;fontColor=#000000;" vertex="1" parent="1">
          <mxGeometry x="914" y="550" width="104" height="56" as="geometry" />
        </mxCell>
        <mxCell id="SpKTWfEn3x-crov-0-pk-73" value="" style="endArrow=none;html=1;rounded=0;strokeWidth=3;fontFamily=Times New Roman;fontSize=18;fontColor=#000000;exitX=1;exitY=0.5;exitDx=0;exitDy=0;entryX=1.008;entryY=0.625;entryDx=0;entryDy=0;entryPerimeter=0;" edge="1" parent="1" source="SpKTWfEn3x-crov-0-pk-12" target="SpKTWfEn3x-crov-0-pk-9">
          <mxGeometry width="50" height="50" relative="1" as="geometry">
            <mxPoint x="82.75" y="76" as="sourcePoint" />
            <mxPoint x="132.75" y="26" as="targetPoint" />
            <Array as="points">
              <mxPoint x="186.75" y="143" />
            </Array>
          </mxGeometry>
        </mxCell>
        <mxCell id="SpKTWfEn3x-crov-0-pk-75" value="" style="endArrow=none;html=1;rounded=0;strokeWidth=3;fontFamily=Times New Roman;fontSize=18;fontColor=#000000;exitX=0;exitY=0.5;exitDx=0;exitDy=0;" edge="1" parent="1" source="SpKTWfEn3x-crov-0-pk-16" target="SpKTWfEn3x-crov-0-pk-14">
          <mxGeometry width="50" height="50" relative="1" as="geometry">
            <mxPoint x="390" y="169" as="sourcePoint" />
            <mxPoint x="435" y="195" as="targetPoint" />
            <Array as="points">
              <mxPoint x="320" y="130" />
            </Array>
          </mxGeometry>
        </mxCell>
      </root>
    </mxGraphModel>
  </diagram>
</mxfile>
